#!OML:ASF X:\für Bonn\!DataBase\2005_08_11_Bastian_Final\c3d\Bastian.ASF
:FULLY-SPECIFIED
:DEGREES
2939
root 0.400713 17.3236 1.20461 164.9 -2.55709 -175.484
lowerback 2.98708 -1.57328 1.57267
upperback 9.08784 -3.20009 1.22365
thorax 7.83641 -1.93884 0.227302
lowerneck -1.63925 -2.85157 -1.27749
upperneck -7.88854 -2.99193 6.79062
head -2.0866 -1.42777 2.43034
rclavicle -8.92667e-015 -1.41137e-014
rhumerus -383.737 -16.9182 311.177
rradius 45.3172
rwrist -123.718
rhand -20.5771 1.74922
rfingers 7.12502
rthumb 5.78265 -388.152
lclavicle -8.92667e-015 -1.41137e-014
lhumerus -16.0801 49.5167 35.4819
lradius 28.2465
lwrist 175.856
lhand -22.6584 7.4598
lfingers 7.12502
lthumb 3.773 37.4062
rfemur 5.22978 7.56892 26.4566
rtibia 34.8265
rfoot -19.1046 -15.9494
rtoes -11.6369
lfemur 9.83875 1.67025 -12.1728
ltibia 26.494
lfoot -17.0079 -1.71454
ltoes -24.004
2940
root 0.396178 17.3255 1.20215 164.972 -2.43295 -175.459
lowerback 2.95155 -1.57208 1.529
upperback 9.0502 -3.19523 1.27385
thorax 7.82075 -1.93947 0.303997
lowerneck -1.70494 -2.79928 -1.28726
upperneck -7.92198 -2.91588 6.78288
head -2.08925 -1.38691 2.42823
rclavicle 3.05631e-014 -1.82882e-014
rhumerus -383.006 -17.0301 312.371
rradius 44.9618
rwrist -123.709
rhand -20.8789 1.6501
rfingers 7.12502
rthumb 5.49126 -388.259
lclavicle 3.05631e-014 -1.82882e-014
lhumerus -15.8575 49.0739 33.9983
lradius 28.2941
lwrist 176.189
lhand -22.4182 7.62984
lfingers 7.12502
lthumb 4.00498 37.5719
rfemur 5.21715 7.88529 26.588
rtibia 34.7698
rfoot -19.0493 -16.181
rtoes -11.5829
lfemur 9.79125 1.77567 -12.129
ltibia 26.5026
lfoot -16.9218 -1.68972
ltoes -23.8447
2941
root 0.391859 17.326 1.20019 165.023 -2.33713 -175.472
lowerback 2.93413 -1.55983 1.47527
upperback 9.02762 -3.17402 1.28414
thorax 7.80903 -1.93155 0.345471
lowerneck -1.80305 -2.76693 -1.2194
upperneck -7.94656 -2.8668 6.74972
head -2.08315 -1.35975 2.40299
rclavicle -2.19284e-015 -1.19271e-015
rhumerus -382.316 -17.2173 313.553
rradius 44.563
rwrist -123.579
rhand -21.0989 1.37864
rfingers 7.12502
rthumb 5.27883 -388.536
lclavicle -2.19284e-015 -1.19271e-015
lhumerus -15.5684 48.4753 32.534
lradius 28.3386
lwrist 176.667
lhand -22.1449 7.7496
lfingers 7.12502
lthumb 4.26889 37.6866
rfemur 5.23273 8.21012 26.6856
rtibia 34.7242
rfoot -18.9901 -16.4647
rtoes -11.7092
lfemur 9.76582 1.80851 -12.1571
ltibia 26.5065
lfoot -16.8286 -1.58686
ltoes -23.6233
2942
root 0.387388 17.3262 1.19807 165.085 -2.21528 -175.446
lowerback 2.91535 -1.5529 1.45881
upperback 8.99221 -3.16083 1.31802
thorax 7.78381 -1.92564 0.390995
lowerneck -1.88209 -2.71876 -1.24685
upperneck -7.96753 -2.79208 6.79578
head -2.07858 -1.31898 2.42147
rclavicle 1.08027e-014 7.30534e-015
rhumerus -381.616 -17.3898 314.738
rradius 44.1865
rwrist -123.43
rhand -21.3868 1.01975
rfingers 7.12502
rthumb 5.00088 -388.901
lclavicle 1.08027e-014 7.30534e-015
lhumerus -15.3541 47.9735 31.032
lradius 28.3622
lwrist 177.043
lhand -21.8647 7.73684
lfingers 7.12502
lthumb 4.53938 37.6682
rfemur 5.23451 8.54231 26.8215
rtibia 34.6798
rfoot -18.9571 -16.6942
rtoes -11.734
lfemur 9.72704 1.85371 -12.1363
ltibia 26.5218
lfoot -16.7759 -1.486
ltoes -23.4953
2943
root 0.383498 17.3264 1.19549 165.142 -2.11643 -175.444
lowerback 2.91081 -1.5547 1.40448
upperback 8.94905 -3.15588 1.3424
thorax 7.74294 -1.92553 0.448255
lowerneck -1.94637 -2.6607 -1.20952
upperneck -7.99544 -2.70891 6.77227
head -2.08065 -1.27538 2.40559
rclavicle 1.2921e-015 -7.30534e-015
rhumerus -380.928 -17.5298 315.903
rradius 43.8369
rwrist -123.297
rhand -21.6721 0.633394
rfingers 7.12502
rthumb 4.72537 -389.294
lclavicle 1.2921e-015 -7.30534e-015
lhumerus -15.207 47.7624 29.4482
lradius 28.3376
lwrist 177.131
lhand -21.622 7.77102
lfingers 7.12502
lthumb 4.77378 37.6972
rfemur 5.23638 8.84636 26.9288
rtibia 34.6494
rfoot -18.8993 -16.9494
rtoes -11.5881
lfemur 9.69395 1.89618 -12.1409
ltibia 26.5323
lfoot -16.7171 -1.42174
ltoes -23.3
2944
root 0.378987 17.3259 1.19277 165.197 -2.01639 -175.424
lowerback 2.8858 -1.54655 1.38586
upperback 8.92459 -3.14284 1.37295
thorax 7.73327 -1.92019 0.490791
lowerneck -2.04938 -2.61984 -1.19807
upperneck -8.00677 -2.64799 6.77147
head -2.06889 -1.2413 2.40094
rclavicle -3.29268e-014 1.77912e-014
rhumerus -380.235 -17.6345 317.062
rradius 43.5002
rwrist -123.261
rhand -21.9598 0.291664
rfingers 7.12502
rthumb 4.44757 -389.642
lclavicle -3.29268e-014 1.77912e-014
lhumerus -15.0115 47.8505 27.9404
lradius 28.2761
lwrist 176.91
lhand -21.3608 7.6744
lfingers 7.12502
lthumb 5.026 37.5948
rfemur 5.24695 9.15449 27.05
rtibia 34.6161
rfoot -18.8365 -17.1653
rtoes -11.2579
lfemur 9.65926 1.91279 -12.1325
ltibia 26.5553
lfoot -16.6544 -1.33882
ltoes -22.9907
2945
root 0.375615 17.3263 1.18976 165.251 -1.92286 -175.45
lowerback 2.87009 -1.54125 1.29503
upperback 8.90183 -3.13175 1.39665
thorax 7.72292 -1.92065 0.566577
lowerneck -2.18843 -2.55885 -1.16465
upperneck -8.00264 -2.56181 6.75008
head -2.04717 -1.19382 2.38436
rclavicle 1.55642e-014 -1.65985e-014
rhumerus -379.547 -17.6507 318.219
rradius 43.1435
rwrist -123.314
rhand -22.1848 0.00354214
rfingers 7.12502
rthumb 4.23027 -389.934
lclavicle 1.55642e-014 -1.65985e-014
lhumerus -14.8679 48.0072 26.3921
lradius 28.1798
lwrist 176.661
lhand -21.0234 7.51221
lfingers 7.12502
lthumb 5.35179 37.4246
rfemur 5.25086 9.4406 27.1201
rtibia 34.598
rfoot -18.7561 -17.3982
rtoes -11.1249
lfemur 9.63278 1.96506 -12.164
ltibia 26.5655
lfoot -16.5951 -1.27662
ltoes -22.7325
